<?xml version="1.0" encoding="UTF-8"?>
<svg width="412px" height="412px" viewBox="0 0 412 412" version="1.1" xmlns="http://www.w3.org/2000/svg" xmlns:xlink="http://www.w3.org/1999/xlink">
    <!-- Generator: Sketch 52.1 (67048) - http://www.bohemiancoding.com/sketch -->
    <title>sequent 2</title>
    <desc>Created with Sketch.</desc>
    <g id="Page-12" stroke="none" stroke-width="1" fill="none" fill-rule="evenodd">
        <g id="CONCEPT-Copy">
            <path d="M0,99.9965989 C0,44.7700023 44.7771737,0 99.9965989,0 L312.003401,0 C367.229998,0 412,44.7771737 412,99.9965989 L412,312.003401 C412,367.229998 367.222826,412 312.003401,412 L99.9965989,412 C44.7700023,412 0,367.222826 0,312.003401 L0,99.9965989 Z" id="Rectangle" fill="#2F4056"></path>
            <g id="Group-3" transform="translate(119.000000, 88.000000)">
                <path d="M16.5458843,54.4436012 C11.8261227,52.8932758 11.8389072,50.3997076 16.5753261,48.873775 L165.424674,0.918963795 C170.160696,-0.606840902 174,2.18748873 174,7.15461782 L174,56.0081806 C174,60.977842 170.15265,66.1788628 165.385282,67.631513 L117.614718,82.1875354 C112.856941,83.6372633 105.164012,83.5524725 100.454116,82.0053876 L16.5458843,54.4436012 Z" id="Rectangle-2" fill="#E45641"></path>
                <path d="M3.94594245,113.519962 C-1.31630125,111.832616 -1.31198246,109.089017 3.93890923,107.397337 L150.896705,60.0519271 C156.155065,58.3578409 160.417807,61.4615199 160.417807,66.9926778 L160.417807,113.826646 C160.417807,119.354003 156.156296,125.207959 150.900039,126.901634 L107.935575,140.745677 C102.679057,142.439437 94.1469949,142.443058 88.8896723,140.75729 L3.94594245,113.519962 Z" id="Rectangle-2" fill="#F1A94E" transform="translate(80.208904, 100.804062) scale(-1, 1) translate(-80.208904, -100.804062) "></path>
                <path d="M0,181.657867 C0,176.13051 4.25793846,170.267095 9.50956661,168.561825 L164.490433,118.237578 C169.742422,116.532191 174,119.626709 174,125.157867 L174,171.991835 C174,177.519192 169.742062,183.382606 164.490433,185.087877 L9.50956661,235.412123 C4.25757799,237.117511 0,234.022993 0,228.491835 L0,181.657867 Z" id="Rectangle-2" fill="#44B3C2"></path>
            </g>
        </g>
    </g>
</svg>