<?xml version="1.0" encoding="UTF-8"?>
<svg width="416px" height="406px" viewBox="0 0 416 406" version="1.1" xmlns="http://www.w3.org/2000/svg" xmlns:xlink="http://www.w3.org/1999/xlink">
    <!-- Generator: Sketch 52.1 (67048) - http://www.bohemiancoding.com/sketch -->
    <title>CONCEPT</title>
    <desc>Created with Sketch.</desc>
    <g id="Page-3" stroke="none" stroke-width="1" fill="none" fill-rule="evenodd">
        <g id="CONCEPT">
            <rect id="Rectangle-3" stroke="#CACACA" stroke-width="6" fill="#FFFFFF" x="3" y="3" width="410" height="400" rx="100"></rect>
            <g id="Group-3" transform="translate(121.000000, 86.000000)">
                <path d="M15.9217425,56.3437188 C9.35874571,54.1879361 9.38544828,49.0889071 15.9620285,46.9701295 L164.811376,-0.984681648 C170.837171,-2.92601274 176,0.829254806 176,7.15461782 L176,56.0081806 C176,61.8613473 171.574089,67.8365262 165.968234,69.5446693 L118.19767,84.1006917 C113.049262,85.6694475 104.934735,85.5822936 99.8299739,83.9055052 L15.9217425,56.3437188 Z" id="Rectangle-2" stroke="#FFFFFF" stroke-width="4" fill="#E45641"></path>
                <path d="M3.94594245,113.519962 C-1.31630125,111.832616 -1.31198246,109.089017 3.93890923,107.397337 L150.896705,60.0519271 C156.155065,58.3578409 160.417807,61.4615199 160.417807,66.9926778 L160.417807,113.826646 C160.417807,119.354003 156.156296,125.207959 150.900039,126.901634 L107.935575,140.745677 C102.679057,142.439437 94.1469949,142.443058 88.8896723,140.75729 L3.94594245,113.519962 Z" id="Rectangle-2" fill="#F1A94E" transform="translate(80.208904, 100.804062) scale(-1, 1) translate(-80.208904, -100.804062) "></path>
                <path d="M0,181.657867 C0,176.13051 4.25793846,170.267095 9.50956661,168.561825 L164.490433,118.237578 C169.742422,116.532191 174,119.626709 174,125.157867 L174,171.991835 C174,177.519192 169.742062,183.382606 164.490433,185.087877 L9.50956661,235.412123 C4.25757799,237.117511 0,234.022993 0,228.491835 L0,181.657867 Z" id="Rectangle-2" fill="#44B3C2"></path>
            </g>
        </g>
    </g>
</svg>