<svg id="Layer_1" data-name="Layer 1" xmlns="http://www.w3.org/2000/svg" xmlns:xlink="http://www.w3.org/1999/xlink" viewBox="0 0 160 160"><defs><style>.cls-1{fill:url(#linear-gradient);}</style><linearGradient id="linear-gradient" x1="18.16" y1="44.29" x2="141.89" y2="115.73" gradientUnits="userSpaceOnUse"><stop offset="0" stop-color="#00b2ca"/><stop offset="1" stop-color="#3ec279"/></linearGradient></defs><title>Artboard 1</title><path class="cls-1" d="M80,160a80,80,0,1,1,80-80A80.09,80.09,0,0,1,80,160ZM14.35,75.51c-.12,1.61-.17,3.09-.17,4.49a65.78,65.78,0,0,0,110,48.74A271.16,271.16,0,0,1,86.45,132a104.93,104.93,0,0,1-13-.73c-11.6-1.45-18.44-5.14-20.9-11.3-4.5-11.24,7.73-27.58,19.55-42,1.42-1.75,2.85-3.49,4.25-5.2,8.19-10,17.45-21.25,15.78-24.77-.45-1-2.44-1.52-5.45-1.52a64.56,64.56,0,0,0-12.53,1.68c-3.76.84-9.58,2.19-16.57,4.34-13,3.88-28.16,13.14-39.9,20.77Zm77.1-46.08c14.3,0,23.19,3.66,25.7,10.58,3.47,9.55-5.5,23.11-27.42,41.46-6,5-10.71,9.27-14.54,13.1-12.94,13.06-12.81,18.36-12.15,20,.91,2.3,4.63,3.65,10.76,3.9.66,0,1.36,0,2.08,0,12.87,0,34.57-4.24,62.75-12.26l1.91-.5A65.06,65.06,0,0,0,145.82,80,65.81,65.81,0,0,0,20.5,51.9c14.75-10.15,34-17.75,52.89-20.85A112,112,0,0,1,91.45,29.43Z"/></svg>